# Blender v3.0.0 OBJ File: ''
# www.blender.org
mtllib plane.mtl
o Cylinder
v -0.411094 0.792910 -2.035843
v -0.411094 0.583127 2.087963
v -0.013625 -0.166664 -2.035843
v -0.161964 -0.018326 2.087963
v -0.411094 -0.331301 -2.035843
v -0.411094 -0.121519 2.087963
v -0.808562 -0.166664 -2.035843
v -0.660224 -0.018326 2.087963
v -0.973199 0.230804 -2.035843
v -0.763417 0.230804 2.087963
v -0.808562 0.628273 -2.035843
v -0.660224 0.479934 2.087963
v -0.411094 1.091519 -1.437326
v -0.411094 1.230804 -0.500068
v -0.411094 1.115649 0.697219
v -0.411094 0.992584 1.392591
v 0.151012 0.230804 -2.035843
v -0.058771 0.230804 2.087963
v -0.013625 0.628273 -2.035843
v -0.161964 0.479934 2.087963
v 0.127566 -0.307855 1.392591
v 0.332467 -0.204184 0.404532
v -0.411094 -0.530975 1.392591
v -0.411094 -0.654040 0.697219
v -0.411094 -0.769195 0.001846
v -0.411094 -0.769195 -0.693526
v -0.411094 -0.629910 -1.437326
v -0.949753 -0.307855 1.392591
v -1.154654 -0.204184 0.404532
v -1.208661 -0.258190 -0.013984
v -1.208928 -0.258301 -0.677422
v -1.141394 -0.190767 -1.187443
v -1.172873 0.230804 1.392591
v -1.244454 0.012611 0.404532
v -1.320830 0.012611 -0.013984
v -1.321098 0.012500 -0.677422
v -1.225590 0.012500 -1.187443
v -0.949753 0.769464 1.392591
v -0.880084 0.953056 0.505986
v -0.939819 1.012790 -0.004138
v -0.939468 1.011944 -0.500068
v -1.019711 0.839421 -1.437326
v 0.386473 -0.258190 -0.013984
v 0.386741 -0.258301 -0.677422
v 0.319207 -0.190767 -1.187443
v -1.036774 0.856484 0.697219
v -1.118201 0.937911 0.001846
v -1.118201 0.937911 -0.693526
v -0.411094 1.230804 -0.693526
v -0.411094 1.142771 0.505343
v -0.411094 1.731312 -0.313903
v -0.411094 1.731312 0.047663
v -0.411094 1.667895 0.410369
v -0.791973 1.574260 0.043352
v 0.350685 0.230804 1.392591
v 0.422266 0.012611 0.404532
v 0.498643 0.012611 -0.013984
v -0.748942 1.531229 0.410832
v -0.791721 1.573650 -0.313903
v -1.036773 -0.394875 0.697219
v -1.118200 -0.476302 0.001846
v -1.118200 -0.476302 -0.693526
v -1.019711 -0.377813 -1.437326
v -1.295938 0.230804 0.697219
v -1.411094 0.230804 0.001846
v -1.411094 0.230804 -0.693526
v -1.271808 0.230804 -1.437326
v -4.752596 -0.044226 -0.281831
v -4.800797 -0.001389 -0.281831
v -4.752481 -0.044178 0.003258
v -4.800682 -0.001342 0.003258
v -4.559233 -0.048036 0.092071
v -4.549910 -0.042271 -0.437880
v -4.597822 -0.001342 0.092071
v -4.586090 -0.001389 -0.437880
v -2.982881 -0.166564 -0.483057
v -2.982686 -0.166483 -0.001016
v -2.842241 -0.117495 -0.820349
v -2.903416 0.030195 -0.820349
v -3.064381 0.030195 -0.483057
v -3.064186 0.030275 -0.001016
v -2.853787 -0.127243 0.149612
v -2.919033 0.030275 0.149612
v -2.095904 -0.212432 -0.580239
v -2.064503 0.021347 -1.003896
v -2.192508 0.021443 -0.007500
v -2.095673 -0.212337 -0.007500
v -1.991818 -0.154131 -1.003896
v -2.192739 0.021347 -0.580239
v -2.004221 -0.165714 0.278831
v -2.081743 0.021443 0.278831
v 0.498910 0.012500 -0.677422
v 0.403403 0.012500 -1.187443
v 0.127566 0.769464 1.392591
v 0.057897 0.953056 0.505986
v 0.117631 1.012790 -0.004138
v 0.117281 1.011944 -0.500068
v 0.197523 0.839421 -1.437326
v 0.214586 0.856484 0.697219
v 0.296013 0.937911 0.001846
v 0.296013 0.937911 -0.693526
v -0.609828 0.710591 -2.035843
v -0.558445 0.531531 2.087963
v -0.715402 0.965470 -1.437326
v -0.764647 1.084358 -0.693526
v -0.540527 0.986067 0.697219
v -0.513984 0.881024 1.392591
v -0.675281 1.121374 -0.500068
v -0.645589 1.047913 0.505664
v -0.601534 1.652786 0.045508
v -0.601407 1.652481 -0.313903
v -0.580018 1.599562 0.410600
v -0.030214 1.574260 0.043352
v -0.073245 1.531229 0.410832
v -0.030466 1.573650 -0.313903
v 0.214586 -0.394875 0.697219
v 0.296013 -0.476302 0.001846
v 0.296013 -0.476302 -0.693526
v 0.197523 -0.377813 -1.437326
v 0.473751 0.230804 0.697219
v 0.588906 0.230804 0.001846
v 0.588906 0.230804 -0.693526
v 0.449621 0.230804 -1.437326
v 3.930408 -0.044226 -0.281831
v 3.978610 -0.001389 -0.281831
v 3.930294 -0.044178 0.003258
v 3.978495 -0.001342 0.003258
v 3.737046 -0.048036 0.092071
v 3.727722 -0.042271 -0.437880
v 3.775634 -0.001342 0.092071
v 3.763903 -0.001389 -0.437880
v 2.160693 -0.166564 -0.483057
v 2.160499 -0.166483 -0.001016
v 2.020053 -0.117495 -0.820349
v 2.081228 0.030195 -0.820349
v 2.242193 0.030195 -0.483057
v 2.241999 0.030275 -0.001016
v 2.031600 -0.127243 0.149612
v 2.096846 0.030275 0.149612
v 1.273717 -0.212432 -0.580239
v 1.242316 0.021347 -1.003896
v 1.370321 0.021443 -0.007500
v 1.273486 -0.212337 -0.007500
v 1.169630 -0.154131 -1.003896
v 1.370552 0.021347 -0.580239
v 1.182033 -0.165714 0.278831
v 1.259556 0.021443 0.278831
v -0.212359 0.710591 -2.035843
v -0.263743 0.531531 2.087963
v -0.106785 0.965470 -1.437326
v -0.057540 1.084358 -0.693526
v -0.281660 0.986067 0.697219
v -0.308204 0.881024 1.392591
v -0.146906 1.121374 -0.500068
v -0.176598 1.047913 0.505664
v -0.220654 1.652786 0.045508
v -0.220780 1.652481 -0.313903
v -0.242170 1.599562 0.410600
vt 0.046702 0.749641
vt 0.000000 0.750000
vt 0.000305 0.810416
vt 0.045463 0.810416
vt 0.500000 0.916667
vt 0.375000 0.916667
vt 0.375000 1.000000
vt 0.500000 1.000000
vt 0.250000 0.010000
vt 0.080294 0.080294
vt 0.010000 0.250000
vt 0.080294 0.419706
vt 0.165147 0.454853
vt 0.250000 0.490000
vt 0.250000 0.916667
vt 0.125000 0.916667
vt 0.125000 1.000000
vt 0.250000 1.000000
vt 0.375000 1.000000
vt 0.375000 0.916667
vt 0.250000 1.000000
vt 0.250000 0.916667
vt 0.165147 0.454853
vt 0.080294 0.419706
vt 0.010000 0.250000
vt 0.080294 0.080294
vt 0.125000 1.000000
vt 0.125000 0.916667
vt 0.062500 0.916667
vt 0.062500 1.000000
vt 0.000000 1.000000
vt 0.000000 0.916667
vt 0.500000 0.666667
vt 0.375000 0.666667
vt 0.375000 0.750000
vt 0.500000 0.750000
vt 0.062500 0.500000
vt 0.062500 0.583333
vt 0.000000 0.583333
vt 0.000000 0.500000
vt 0.062500 0.666667
vt 0.000000 0.666667
vt 0.093404 0.689851
vt 0.093404 0.749283
vt 0.093404 0.749283
vt 0.093404 0.689851
vt 0.045463 0.810416
vt 0.000305 0.810416
vt 0.045463 0.810416
vt 0.062500 0.833333
vt 0.000000 0.833333
vt 0.250000 0.500000
vt 0.250000 0.583333
vt 0.125000 0.583333
vt 0.125000 0.500000
vt 0.250000 0.666667
vt 0.125000 0.666667
vt 0.250000 0.750000
vt 0.125000 0.750000
vt 0.250000 0.833333
vt 0.125000 0.833333
vt 0.375000 0.500000
vt 0.375000 0.583333
vt 0.287963 0.749138
vt 0.287979 0.667571
vt 0.287979 0.667571
vt 0.287963 0.749138
vt 0.291974 0.608995
vt 0.333026 0.608995
vt 0.333026 0.608995
vt 0.291974 0.608995
vt 0.337021 0.667572
vt 0.337037 0.749138
vt 0.337037 0.749138
vt 0.337021 0.667571
vt 0.375000 0.833333
vt 0.500000 0.500000
vt 0.500000 0.583333
vt 0.375000 0.666667
vt 0.375000 0.750000
vt 0.500000 0.833333
vt 0.250000 0.666667
vt 0.125000 0.666667
vt 0.125000 0.750000
vt 0.250000 0.750000
vt 0.250000 0.500000
vt 0.125000 0.500000
vt 0.125000 0.583333
vt 0.250000 0.583333
vt 0.045463 0.810416
vt 0.062500 0.583333
vt 0.062500 0.666667
vt 0.062500 0.916667
vt 0.062500 1.000000
vt 0.125000 0.833333
vt 0.250000 0.833333
vt 0.062500 0.833333
vt 0.093404 0.689851
vt 0.093404 0.689851
vt 0.093404 0.749283
vt 0.093404 0.749283
vt 0.062500 0.500000
vt 0.291974 0.608995
vt 0.291974 0.608995
vt 0.333026 0.608995
vt 0.333026 0.608995
vt 0.337021 0.667572
vt 0.337021 0.667571
vt 0.337037 0.749138
vt 0.337037 0.749138
vt 0.375000 0.500000
vt 0.375000 0.583333
vt 0.090620 0.810416
vt 0.046702 0.689851
vt 0.000000 0.689851
vt 0.287979 0.667571
vt 0.287963 0.749138
vt 0.046702 0.689851
vt 0.287963 0.749138
vt 0.287979 0.667571
vt 0.375000 0.833333
vt 0.090620 0.810416
vt 0.046702 0.689851
vt 0.333896 0.805798
vt 0.337037 0.749138
vt 0.337021 0.667571
vt 0.046702 0.689851
vt 0.046702 0.749641
vt 0.000000 0.689851
vt 0.291974 0.608995
vt 0.287979 0.667571
vt 0.291104 0.805798
vt 0.333896 0.805798
vt 0.287963 0.749138
vt 0.291104 0.805798
vt 0.090620 0.810416
vt 0.333896 0.805798
vt 0.337037 0.749138
vt 0.337021 0.667571
vt 0.333026 0.608995
vt 0.287963 0.749138
vt 0.291104 0.805798
vt 0.287979 0.667571
vt 0.291974 0.608995
vt 0.333896 0.805798
vt 0.291104 0.805798
vt 0.333896 0.805798
vt 0.291104 0.805798
vt 0.291104 0.805798
vt 0.287963 0.749138
vt 0.287979 0.667572
vt 0.291974 0.608995
vt 0.333896 0.805797
vt 0.337037 0.749138
vt 0.333026 0.608995
vt 0.337021 0.667572
vt 0.333026 0.608995
vt 0.090620 0.810416
vt 0.665147 0.454853
vt 0.750000 0.490000
vt 0.750000 0.010000
vt 0.580294 0.080294
vt 0.510000 0.250000
vt 0.580294 0.419706
vt 0.333896 0.805798
vt 0.291104 0.805798
vt 0.291104 0.805798
vt 0.287963 0.749138
vt 0.287979 0.667572
vt 0.291974 0.608995
vt 0.333896 0.805797
vt 0.337037 0.749138
vt 0.333026 0.608995
vt 0.337021 0.667572
vt 0.665147 0.454853
vt 0.580294 0.419706
vt 0.510000 0.250000
vt 0.580294 0.080294
vn 0.3743 0.9138 0.1575
vn 0.3362 -0.8116 0.4779
vn 0.0000 0.0000 1.0000
vn 0.8116 0.3362 0.4779
vn -0.3362 -0.8116 0.4779
vn -0.8116 -0.3362 0.4779
vn -0.8116 0.3362 0.4779
vn -0.5000 0.7668 0.4025
vn 0.3827 -0.9239 -0.0000
vn -0.3475 0.8390 -0.4186
vn -0.3771 0.9104 -0.1705
vn -0.9670 0.2547 -0.0011
vn -0.0705 0.1775 0.9816
vn -0.7144 0.6882 0.1265
vn -0.8390 0.3475 -0.4186
vn -0.9104 0.3771 -0.1705
vn -0.9239 0.3827 0.0000
vn -0.9133 0.3783 0.1512
vn -0.9118 0.3777 0.1614
vn -0.8390 -0.3475 -0.4186
vn -0.0182 0.9998 -0.0002
vn -0.2201 -0.1136 -0.9688
vn -0.0689 -0.9976 0.0002
vn -0.9118 -0.3777 0.1614
vn -0.3475 -0.8390 -0.4186
vn -0.3771 -0.9104 -0.1705
vn -0.3827 -0.9239 -0.0000
vn -0.3783 -0.9133 0.1512
vn -0.3777 -0.9118 0.1614
vn 0.9239 0.3827 0.0000
vn 0.8390 0.3475 -0.4186
vn 0.0705 0.1775 0.9816
vn 0.3771 0.9104 -0.1705
vn 0.5000 0.7668 0.4025
vn 0.9133 0.3783 0.1512
vn 0.9104 0.3771 -0.1705
vn 0.7144 0.6882 0.1265
vn 0.9670 0.2547 -0.0011
vn 0.3475 0.8390 -0.4186
vn 0.8116 -0.3362 0.4779
vn 0.2201 -0.1136 -0.9688
vn 0.0689 -0.9976 0.0002
vn 0.8390 -0.3475 -0.4186
vn 0.9118 0.3777 0.1614
vn 0.3783 0.9133 0.1512
vn 0.3827 0.9239 0.0000
vn 0.6643 -0.7475 0.0004
vn 0.3475 -0.8390 -0.4186
vn 0.1429 0.3450 -0.9276
vn 0.0182 0.9998 -0.0002
vn 0.9118 -0.3777 0.1614
vn -0.3783 0.9133 0.1512
vn -0.3845 0.9231 -0.0008
vn -0.3827 0.9239 0.0000
vn -0.2765 0.9006 0.3354
vn 0.9226 -0.3531 0.1551
vn 0.9235 -0.3837 0.0002
vn -0.3819 0.9242 -0.0005
vn -0.3743 0.9138 0.1575
vn 0.9066 -0.3863 -0.1698
vn 0.3829 -0.3712 0.8459
vn 0.3771 -0.9104 -0.1705
vn 0.9021 -0.4027 0.1551
vn -0.1429 0.3450 -0.9276
vn -0.9603 0.2410 0.1407
vn -0.9226 -0.3531 0.1551
vn -0.9235 -0.3837 0.0002
vn -0.9142 -0.3679 -0.1698
vn -0.9021 -0.4027 0.1551
vn -0.9243 -0.3817 0.0002
vn -0.9066 -0.3863 -0.1698
vn -0.9118 -0.3777 -0.1613
vn -0.9170 -0.3798 0.1219
vn -0.5115 -0.5156 -0.6874
vn -0.6643 -0.7475 0.0004
vn -0.3829 -0.3712 0.8459
vn -0.0826 -0.9838 -0.1592
vn -0.0598 -0.9727 0.2242
vn -0.0342 -0.0174 0.9993
vn -0.0212 0.9996 -0.0162
vn -0.0189 0.9994 0.0275
vn 0.0108 0.9999 -0.0063
vn 0.0110 0.9999 0.0042
vn -0.1529 -0.0633 0.9862
vn -0.0630 -0.9728 0.2229
vn -0.0730 -0.9840 -0.1623
vn -0.0516 -0.9987 0.0002
vn -0.2138 -0.0886 -0.9729
vn 0.0101 0.9999 -0.0002
vn -0.0704 -0.9868 -0.1459
vn -0.0584 -0.9865 0.1529
vn -0.1488 -0.0616 0.9869
vn 0.0108 0.9999 0.0026
vn 0.0105 0.9999 -0.0028
vn 0.9118 -0.3777 -0.1613
vn 0.9170 -0.3798 0.1219
vn 0.9243 -0.3817 0.0002
vn 0.9142 -0.3679 -0.1698
vn 0.9603 0.2410 0.1407
vn 0.2765 0.9006 0.3354
vn 0.5115 -0.5156 -0.6874
vn 0.3845 0.9231 -0.0008
vn 0.3777 -0.9118 0.1614
vn 0.3819 0.9242 -0.0005
vn -0.3745 0.9145 0.1532
vn -0.3819 0.9242 -0.0014
vn -0.4966 0.8057 0.3230
vn -0.2476 0.9568 0.1524
vn -0.2607 0.8590 0.4406
vn 0.0000 0.0000 -1.0000
vn 0.3783 -0.9133 0.1512
vn 0.0826 -0.9838 -0.1592
vn 0.0598 -0.9727 0.2242
vn 0.0342 -0.0174 0.9993
vn 0.0212 0.9996 -0.0162
vn 0.0189 0.9994 0.0275
vn -0.0108 0.9999 -0.0063
vn -0.0110 0.9999 0.0042
vn 0.1529 -0.0633 0.9862
vn 0.0630 -0.9728 0.2229
vn 0.0730 -0.9840 -0.1623
vn 0.0516 -0.9987 0.0002
vn 0.2138 -0.0886 -0.9729
vn -0.0101 0.9999 -0.0002
vn 0.0704 -0.9868 -0.1459
vn 0.0584 -0.9865 0.1529
vn 0.1488 -0.0616 0.9869
vn -0.0108 0.9999 0.0026
vn -0.0105 0.9999 -0.0028
vn 0.3745 0.9145 0.1532
vn 0.3819 0.9242 -0.0014
vn 0.4966 0.8057 0.3230
vn 0.2476 0.9568 0.1524
vn 0.2607 0.8590 0.4406
usemtl None
s off
f 156/1/1 52/2/1 53/3/1 158/4/1
f 23/5/2 21/6/2 4/7/2 6/8/2
f 6/9/3 4/10/3 18/11/3 20/12/3 149/13/3 2/14/3
f 55/15/4 94/16/4 20/17/4 18/18/4
f 23/5/5 6/8/5 8/19/5 28/20/5
f 28/20/6 8/19/6 10/21/6 33/22/6
f 6/9/3 2/14/3 103/23/3 12/24/3 10/25/3 8/26/3
f 33/22/7 10/21/7 12/27/7 38/28/7
f 107/29/8 103/30/8 2/31/8 16/32/8
f 26/33/9 118/34/9 117/35/9 25/36/9
f 102/37/10 104/38/10 13/39/10 1/40/10
f 104/38/11 105/41/11 49/42/11 13/39/11
f 41/43/12 40/44/12 54/45/12 59/46/12
f 109/47/13 50/48/13 53/3/13 112/49/13
f 106/50/14 107/29/14 16/32/14 15/51/14
f 9/52/15 67/53/15 42/54/15 11/55/15
f 67/53/16 66/56/16 48/57/16 42/54/16
f 66/56/17 65/58/17 47/59/17 48/57/17
f 65/58/18 64/60/18 46/61/18 47/59/18
f 64/60/19 33/22/19 38/28/19 46/61/19
f 7/62/20 63/63/20 67/53/20 9/52/20
f 81/64/21 80/65/21 69/66/21 71/67/21
f 79/68/22 78/69/22 73/70/22 75/71/22
f 76/72/23 77/73/23 70/74/23 68/75/23
f 60/76/24 28/20/24 33/22/24 64/60/24
f 5/77/25 27/78/25 63/63/25 7/62/25
f 27/78/26 26/33/26 62/79/26 63/63/26
f 26/33/27 25/36/27 61/80/27 62/79/27
f 25/36/28 24/81/28 60/76/28 61/80/28
f 24/81/29 23/5/29 28/20/29 60/76/29
f 122/82/30 101/83/30 100/84/30 121/85/30
f 17/86/31 19/87/31 98/88/31 123/89/31
f 155/90/32 158/4/32 53/3/32 50/48/32
f 150/91/33 13/39/33 49/42/33 151/92/33
f 153/93/34 16/32/34 2/31/34 149/94/34
f 121/85/35 100/84/35 99/95/35 120/96/35
f 123/89/36 98/88/36 101/83/36 122/82/36
f 152/97/37 15/51/37 16/32/37 153/93/37
f 97/98/38 115/99/38 113/100/38 96/101/38
f 148/102/39 1/40/39 13/39/39 150/91/39
f 21/6/40 55/15/40 18/18/40 4/7/40
f 135/103/41 131/104/41 129/105/41 134/106/41
f 132/107/42 124/108/42 126/109/42 133/110/42
f 3/111/43 17/86/43 123/89/43 119/112/43
f 120/96/44 99/95/44 94/16/44 55/15/44
f 95/113/45 99/95/45 100/84/45 96/101/45
f 154/114/46 151/92/46 49/42/46 14/115/46
f 124/108/47 125/116/47 127/117/47 126/109/47
f 5/77/48 3/111/48 119/112/48 27/78/48
f 154/114/49 157/118/49 115/99/49 97/98/49
f 137/119/50 127/117/50 125/116/50 136/120/50
f 116/121/51 120/96/51 55/15/51 21/6/51
f 39/122/52 40/44/52 47/59/52 46/61/52
f 40/44/53 41/43/53 48/57/53 47/59/53
f 108/123/54 14/115/54 49/42/54 105/41/54
f 109/47/55 39/122/55 46/61/55 106/50/55
f 22/124/56 116/121/56 117/35/56 43/125/56
f 43/125/57 117/35/57 118/34/57 44/126/57
f 111/127/58 110/128/58 52/2/58 51/129/58
f 110/128/59 112/49/59 53/3/59 52/2/59
f 93/130/60 123/89/60 122/82/60 92/131/60
f 126/109/61 127/117/61 130/132/61 128/133/61
f 27/78/62 119/112/62 118/34/62 26/33/62
f 57/134/63 121/85/63 120/96/63 56/135/63
f 108/123/64 41/43/64 59/46/64 111/127/64
f 40/44/65 39/122/65 58/136/65 54/45/65
f 29/137/66 30/138/66 61/80/66 60/76/66
f 30/138/67 31/139/67 62/79/67 61/80/67
f 31/139/68 32/140/68 63/63/68 62/79/68
f 35/141/69 34/142/69 64/60/69 65/58/69
f 36/143/70 35/141/70 65/58/70 66/56/70
f 37/144/71 36/143/71 66/56/71 67/53/71
f 32/140/72 37/144/72 67/53/72 63/63/72
f 34/142/73 29/137/73 60/76/73 64/60/73
f 73/70/74 68/75/74 69/66/74 75/71/74
f 68/75/75 70/74/75 71/67/75 69/66/75
f 70/74/76 72/145/76 74/146/76 71/67/76
f 78/69/77 76/72/77 68/75/77 73/70/77
f 77/73/78 82/147/78 72/145/78 70/74/78
f 82/147/79 83/148/79 74/146/79 72/145/79
f 80/65/80 79/68/80 75/71/80 69/66/80
f 83/148/81 81/64/81 71/67/81 74/146/81
f 91/149/82 86/150/82 81/64/82 83/148/82
f 89/151/83 85/152/83 79/68/83 80/65/83
f 90/153/84 91/149/84 83/148/84 82/147/84
f 87/154/85 90/153/85 82/147/85 77/73/85
f 88/155/86 84/156/86 76/72/86 78/69/86
f 84/156/87 87/154/87 77/73/87 76/72/87
f 85/152/88 88/155/88 78/69/88 79/68/88
f 86/150/89 89/151/89 80/65/89 81/64/89
f 35/141/89 36/143/89 89/151/89 86/150/89
f 37/144/88 32/140/88 88/155/88 85/152/88
f 31/139/87 30/138/87 87/154/87 84/156/87
f 32/140/90 31/139/90 84/156/90 88/155/90
f 30/138/91 29/137/91 90/153/91 87/154/91
f 29/137/92 34/142/92 91/149/92 90/153/92
f 36/143/93 37/144/93 85/152/93 89/151/93
f 34/142/94 35/141/94 86/150/94 91/149/94
f 45/157/95 119/112/95 123/89/95 93/130/95
f 56/135/96 120/96/96 116/121/96 22/124/96
f 92/131/97 122/82/97 121/85/97 57/134/97
f 44/126/98 118/34/98 119/112/98 45/157/98
f 96/101/99 113/100/99 114/158/99 95/113/99
f 155/90/100 152/97/100 99/95/100 95/113/100
f 129/105/101 131/104/101 125/116/101 124/108/101
f 96/101/102 100/84/102 101/83/102 97/98/102
f 24/81/103 116/121/103 21/6/103 23/5/103
f 157/118/104 51/129/104 52/2/104 156/1/104
f 14/115/64 108/123/64 111/127/64 51/129/64
f 54/45/105 58/136/105 112/49/105 110/128/105
f 59/46/106 54/45/106 110/128/106 111/127/106
f 50/48/107 109/47/107 106/50/107 15/51/107
f 41/43/54 108/123/54 105/41/54 48/57/54
f 46/61/108 38/28/108 107/29/108 106/50/108
f 39/122/13 109/47/13 112/49/13 58/136/13
f 42/54/11 48/57/11 105/41/11 104/38/11
f 11/55/10 42/54/10 104/38/10 102/37/10
f 38/28/109 12/27/109 103/30/109 107/29/109
f 102/159/110 1/160/110 5/161/110 7/162/110 9/163/110 11/164/110
f 25/36/111 117/35/111 116/121/111 24/81/111
f 134/106/112 129/105/112 124/108/112 132/107/112
f 133/110/113 126/109/113 128/133/113 138/165/113
f 138/165/114 128/133/114 130/132/114 139/166/114
f 136/120/115 125/116/115 131/104/115 135/103/115
f 139/166/116 130/132/116 127/117/116 137/119/116
f 147/167/117 139/166/117 137/119/117 142/168/117
f 145/169/118 136/120/118 135/103/118 141/170/118
f 146/171/119 138/165/119 139/166/119 147/167/119
f 143/172/120 133/110/120 138/165/120 146/171/120
f 144/173/121 134/106/121 132/107/121 140/174/121
f 140/174/122 132/107/122 133/110/122 143/172/122
f 141/170/123 135/103/123 134/106/123 144/173/123
f 142/168/124 137/119/124 136/120/124 145/169/124
f 57/134/124 142/168/124 145/169/124 92/131/124
f 93/130/123 141/170/123 144/173/123 45/157/123
f 44/126/122 140/174/122 143/172/122 43/125/122
f 45/157/125 144/173/125 140/174/125 44/126/125
f 43/125/126 143/172/126 146/171/126 22/124/126
f 22/124/127 146/171/127 147/167/127 56/135/127
f 92/131/128 145/169/128 141/170/128 93/130/128
f 56/135/129 147/167/129 142/168/129 57/134/129
f 14/115/49 51/129/49 157/118/49 154/114/49
f 113/100/130 156/1/130 158/4/130 114/158/130
f 115/99/131 157/118/131 156/1/131 113/100/131
f 50/48/132 15/51/132 152/97/132 155/90/132
f 97/98/46 101/83/46 151/92/46 154/114/46
f 99/95/133 152/97/133 153/93/133 94/16/133
f 95/113/32 114/158/32 158/4/32 155/90/32
f 98/88/33 150/91/33 151/92/33 101/83/33
f 19/87/39 148/102/39 150/91/39 98/88/39
f 94/16/134 153/93/134 149/94/134 20/17/134
f 148/175/110 19/176/110 17/177/110 3/178/110 5/161/110 1/160/110
